# xmcd
#
# Track frame offsets:
#	150
#	14303
#	32317
#	47587
#	65314
#	78214
#	90675
#	104618
#	119321
#	136378
#	156922
#	166655
#	183365
#
# Disc length: 2656 seconds
# Revision: 0
# Processed by: cddbd v1.5.2PL0 Copyright (c) Steve Scherf et al.
# Submitted via: dBpowerAMP V12.0
#
DISCID=970a5e0d
DTITLE=The Boxcars - The Boxcars
DYEAR=2010
DGENRE=Country
TTITLE0=December 13th
TTITLE1=Hurtin' Inside
TTITLE2=You Can Take Your Time
TTITLE3=In God's Hands
TTITLE4=I Went Back Home Today
TTITLE5=Old Henry Hill
TTITLE6=The Hard Way
TTITLE7=Log Cabin in the Lane
TTITLE8=Jumpin' the Track
TTITLE9=Never Played the Opry
TTITLE10=I Could Change My Mind
TTITLE11=I've Been Waiting
TTITLE12=Take Me On the Midnight Train
EXTD=
EXTT0=
EXTT1=
EXTT2=
EXTT3=
EXTT4=
EXTT5=
EXTT6=
EXTT7=
EXTT8=
EXTT9=
EXTT10=
EXTT11=
EXTT12=
PLAYORDER=
